<?xml version="1.0" encoding="iso-8859-1"?>
<!-- Generator: Adobe Illustrator 21.0.0, SVG Export Plug-In . SVG Version: 6.00 Build 0)  -->
<svg version="1.1" id="Capa_1" xmlns="http://www.w3.org/2000/svg" xmlns:xlink="http://www.w3.org/1999/xlink" x="0px" y="0px"
	 viewBox="0 0 587.697 587.697" style="enable-background:new 0 0 587.697 587.697;" xml:space="preserve">
<g>
	<g>
		<g id="flat_27_">
			<path style="fill:#87CED9;" d="M121.592,0h425.573c22.383,0,40.531,18.148,40.531,40.531v314.114
				c0,22.383-18.148,40.531-40.531,40.531H121.592c-22.383,0-40.531-18.148-40.531-40.531V40.531C81.062,18.148,99.209,0,121.592,0z
				"/>
			<rect x="192.521" y="30.398" style="fill:#5EB3D1;" width="20.265" height="20.265"/>
			<rect x="111.46" y="30.398" style="fill:#5EB3D1;" width="20.265" height="20.265"/>
			<rect x="151.99" y="30.398" style="fill:#5EB3D1;" width="20.265" height="20.265"/>
			<rect x="111.46" y="70.929" style="fill:#5EB3D1;" width="445.839" height="20.265"/>
			<rect x="111.46" y="111.46" style="fill:#5EB3D1;" width="101.327" height="20.265"/>
			<rect x="111.46" y="151.99" style="fill:#5EB3D1;" width="60.796" height="20.265"/>
			<rect x="233.052" y="162.123" style="fill:#E34B87;" width="40.531" height="182.389"/>
			<rect x="314.114" y="131.725" style="fill:#E34B87;" width="40.531" height="212.787"/>
			<rect x="395.175" y="202.654" style="fill:#E34B87;" width="40.531" height="141.858"/>
			<rect x="476.237" y="131.725" style="fill:#E34B87;" width="40.531" height="212.787"/>
			<rect x="111.46" y="334.379" style="fill:#5EB3D1;" width="445.839" height="20.265"/>
			<path style="fill:#FDA72F;" d="M328.654,531.308c36.164-36.062,56.459-85.064,56.388-136.133H192.521L328.654,531.308z"/>
			<path style="fill:#E34B87;" d="M192.521,202.654C86.199,202.654,0,288.853,0,395.175s86.199,192.521,192.521,192.521
				c51.059,0,100.03-20.286,136.133-56.388L192.521,395.175V202.654z"/>
			<path style="fill:#4398D1;" d="M192.521,202.654v192.521h192.521C385.043,288.853,298.844,202.654,192.521,202.654z"/>
		</g>
	</g>
</g>
<g>
</g>
<g>
</g>
<g>
</g>
<g>
</g>
<g>
</g>
<g>
</g>
<g>
</g>
<g>
</g>
<g>
</g>
<g>
</g>
<g>
</g>
<g>
</g>
<g>
</g>
<g>
</g>
<g>
</g>
</svg>
